<mxfile host="app.diagrams.net" agent="Mozilla/5.0 (Windows NT 10.0; Win64; x64) AppleWebKit/537.36 (KHTML, like Gecko) Chrome/136.0.0.0 Safari/537.36" version="27.0.3">
  <diagram name="페이지-1" id="jXic6pPBZGlcFUUl9TfX">
    <mxGraphModel dx="1806" dy="819" grid="1" gridSize="10" guides="1" tooltips="1" connect="1" arrows="1" fold="1" page="1" pageScale="1" pageWidth="827" pageHeight="1169" math="0" shadow="0">
      <root>
        <mxCell id="0" />
        <mxCell id="1" parent="0" />
        <mxCell id="D7P21UFdMfmvg6rPIHkb-2" style="edgeStyle=orthogonalEdgeStyle;rounded=0;orthogonalLoop=1;jettySize=auto;html=1;exitX=1;exitY=0.5;exitDx=0;exitDy=0;entryX=0;entryY=0.5;entryDx=0;entryDy=0;" edge="1" parent="1" source="D7P21UFdMfmvg6rPIHkb-1" target="D7P21UFdMfmvg6rPIHkb-3">
          <mxGeometry relative="1" as="geometry">
            <mxPoint x="1120" y="140" as="targetPoint" />
          </mxGeometry>
        </mxCell>
        <mxCell id="D7P21UFdMfmvg6rPIHkb-1" value="IorD = 0&lt;div&gt;MemRead&lt;br&gt;&lt;div&gt;IRWrite&lt;br&gt;&lt;div&gt;ALUsrcA = 011&lt;/div&gt;&lt;div&gt;ALUsrcB = 001&lt;/div&gt;&lt;div&gt;ALUOp = 00100&lt;/div&gt;&lt;div&gt;PCsrc = 00&lt;/div&gt;&lt;div&gt;PCwrite&lt;/div&gt;&lt;/div&gt;&lt;/div&gt;" style="ellipse;whiteSpace=wrap;html=1;aspect=fixed;" vertex="1" parent="1">
          <mxGeometry x="960" y="80" width="120" height="120" as="geometry" />
        </mxCell>
        <mxCell id="D7P21UFdMfmvg6rPIHkb-4" style="rounded=0;orthogonalLoop=1;jettySize=auto;html=1;exitX=0.079;exitY=0.764;exitDx=0;exitDy=0;entryX=0.749;entryY=0.058;entryDx=0;entryDy=0;entryPerimeter=0;exitPerimeter=0;" edge="1" parent="1" source="D7P21UFdMfmvg6rPIHkb-3" target="D7P21UFdMfmvg6rPIHkb-5">
          <mxGeometry relative="1" as="geometry">
            <mxPoint x="960" y="280" as="targetPoint" />
          </mxGeometry>
        </mxCell>
        <mxCell id="D7P21UFdMfmvg6rPIHkb-15" style="edgeStyle=none;shape=connector;rounded=0;orthogonalLoop=1;jettySize=auto;html=1;exitX=0.35;exitY=0.959;exitDx=0;exitDy=0;strokeColor=default;align=center;verticalAlign=middle;fontFamily=Helvetica;fontSize=11;fontColor=default;labelBackgroundColor=default;endArrow=classic;exitPerimeter=0;" edge="1" parent="1" source="D7P21UFdMfmvg6rPIHkb-3" target="D7P21UFdMfmvg6rPIHkb-14">
          <mxGeometry relative="1" as="geometry" />
        </mxCell>
        <mxCell id="D7P21UFdMfmvg6rPIHkb-22" style="edgeStyle=none;shape=connector;rounded=0;orthogonalLoop=1;jettySize=auto;html=1;exitX=0.566;exitY=1.001;exitDx=0;exitDy=0;strokeColor=default;align=center;verticalAlign=middle;fontFamily=Helvetica;fontSize=11;fontColor=default;labelBackgroundColor=default;endArrow=classic;entryX=0.408;entryY=0;entryDx=0;entryDy=0;entryPerimeter=0;exitPerimeter=0;" edge="1" parent="1" source="D7P21UFdMfmvg6rPIHkb-3" target="D7P21UFdMfmvg6rPIHkb-23">
          <mxGeometry relative="1" as="geometry">
            <mxPoint x="1260" y="280" as="targetPoint" />
          </mxGeometry>
        </mxCell>
        <mxCell id="D7P21UFdMfmvg6rPIHkb-24" style="edgeStyle=none;shape=connector;rounded=0;orthogonalLoop=1;jettySize=auto;html=1;exitX=0.749;exitY=0.91;exitDx=0;exitDy=0;strokeColor=default;align=center;verticalAlign=middle;fontFamily=Helvetica;fontSize=11;fontColor=default;labelBackgroundColor=default;endArrow=classic;exitPerimeter=0;entryX=0.217;entryY=0.065;entryDx=0;entryDy=0;entryPerimeter=0;" edge="1" parent="1" source="D7P21UFdMfmvg6rPIHkb-3" target="D7P21UFdMfmvg6rPIHkb-25">
          <mxGeometry relative="1" as="geometry">
            <mxPoint x="1400" y="280" as="targetPoint" />
          </mxGeometry>
        </mxCell>
        <mxCell id="D7P21UFdMfmvg6rPIHkb-26" style="edgeStyle=none;shape=connector;rounded=0;orthogonalLoop=1;jettySize=auto;html=1;exitX=0.917;exitY=0.75;exitDx=0;exitDy=0;strokeColor=default;align=center;verticalAlign=middle;fontFamily=Helvetica;fontSize=11;fontColor=default;labelBackgroundColor=default;endArrow=classic;exitPerimeter=0;entryX=0.268;entryY=0.078;entryDx=0;entryDy=0;entryPerimeter=0;" edge="1" parent="1" source="D7P21UFdMfmvg6rPIHkb-3">
          <mxGeometry relative="1" as="geometry">
            <mxPoint x="1592.1599999999999" y="289.36" as="targetPoint" />
          </mxGeometry>
        </mxCell>
        <mxCell id="D7P21UFdMfmvg6rPIHkb-3" value="EXTmode = 1&lt;br&gt;&lt;div&gt;ALUsrcA = 011&lt;/div&gt;&lt;div&gt;ALUsrcB = 100&lt;/div&gt;&lt;div&gt;ALUOp = 00100&lt;/div&gt;" style="ellipse;whiteSpace=wrap;html=1;aspect=fixed;" vertex="1" parent="1">
          <mxGeometry x="1190" y="80" width="120" height="120" as="geometry" />
        </mxCell>
        <mxCell id="D7P21UFdMfmvg6rPIHkb-16" style="edgeStyle=none;shape=connector;rounded=0;orthogonalLoop=1;jettySize=auto;html=1;exitX=0;exitY=1;exitDx=0;exitDy=0;entryX=0.5;entryY=0;entryDx=0;entryDy=0;strokeColor=default;align=center;verticalAlign=middle;fontFamily=Helvetica;fontSize=11;fontColor=default;labelBackgroundColor=default;endArrow=classic;" edge="1" parent="1" source="D7P21UFdMfmvg6rPIHkb-5" target="D7P21UFdMfmvg6rPIHkb-7">
          <mxGeometry relative="1" as="geometry" />
        </mxCell>
        <mxCell id="D7P21UFdMfmvg6rPIHkb-19" style="edgeStyle=none;shape=connector;rounded=0;orthogonalLoop=1;jettySize=auto;html=1;exitX=1;exitY=1;exitDx=0;exitDy=0;entryX=0.5;entryY=0;entryDx=0;entryDy=0;strokeColor=default;align=center;verticalAlign=middle;fontFamily=Helvetica;fontSize=11;fontColor=default;labelBackgroundColor=default;endArrow=classic;" edge="1" parent="1" source="D7P21UFdMfmvg6rPIHkb-5" target="D7P21UFdMfmvg6rPIHkb-12">
          <mxGeometry relative="1" as="geometry" />
        </mxCell>
        <mxCell id="D7P21UFdMfmvg6rPIHkb-5" value="EXTmode = 1&lt;br&gt;&lt;div&gt;ALUsrcA = 000&lt;/div&gt;&lt;div&gt;ALUsrcB = 011&lt;/div&gt;&lt;div&gt;ALUOp = 00100&lt;/div&gt;" style="ellipse;whiteSpace=wrap;html=1;aspect=fixed;" vertex="1" parent="1">
          <mxGeometry x="880" y="280" width="120" height="120" as="geometry" />
        </mxCell>
        <mxCell id="D7P21UFdMfmvg6rPIHkb-17" style="edgeStyle=none;shape=connector;rounded=0;orthogonalLoop=1;jettySize=auto;html=1;exitX=0.5;exitY=1;exitDx=0;exitDy=0;entryX=0.5;entryY=0;entryDx=0;entryDy=0;strokeColor=default;align=center;verticalAlign=middle;fontFamily=Helvetica;fontSize=11;fontColor=default;labelBackgroundColor=default;endArrow=classic;" edge="1" parent="1" source="D7P21UFdMfmvg6rPIHkb-7" target="D7P21UFdMfmvg6rPIHkb-9">
          <mxGeometry relative="1" as="geometry" />
        </mxCell>
        <mxCell id="D7P21UFdMfmvg6rPIHkb-7" value="&lt;div&gt;IorD = 1&lt;/div&gt;&lt;div&gt;MemRead&lt;/div&gt;&lt;div&gt;DatWidth = 011&lt;/div&gt;" style="ellipse;whiteSpace=wrap;html=1;aspect=fixed;" vertex="1" parent="1">
          <mxGeometry x="760" y="440" width="120" height="120" as="geometry" />
        </mxCell>
        <mxCell id="D7P21UFdMfmvg6rPIHkb-75" style="edgeStyle=none;shape=connector;rounded=0;orthogonalLoop=1;jettySize=auto;html=1;exitX=0.5;exitY=1;exitDx=0;exitDy=0;strokeColor=default;align=center;verticalAlign=middle;fontFamily=Helvetica;fontSize=11;fontColor=default;labelBackgroundColor=default;autosize=1;resizable=0;endArrow=classic;entryX=0.5;entryY=0;entryDx=0;entryDy=0;" edge="1" parent="1" source="D7P21UFdMfmvg6rPIHkb-9" target="D7P21UFdMfmvg6rPIHkb-1">
          <mxGeometry relative="1" as="geometry">
            <mxPoint x="1800" y="760" as="targetPoint" />
            <Array as="points">
              <mxPoint x="820" y="760" />
              <mxPoint x="1760" y="760" />
              <mxPoint x="1760" y="40" />
              <mxPoint x="1020" y="40" />
            </Array>
          </mxGeometry>
        </mxCell>
        <mxCell id="D7P21UFdMfmvg6rPIHkb-9" value="RegDst = 00&lt;div&gt;RegDatSel = 001&lt;/div&gt;&lt;div&gt;RegWrite&lt;/div&gt;" style="ellipse;whiteSpace=wrap;html=1;aspect=fixed;" vertex="1" parent="1">
          <mxGeometry x="760" y="600" width="120" height="120" as="geometry" />
        </mxCell>
        <mxCell id="D7P21UFdMfmvg6rPIHkb-76" style="edgeStyle=none;shape=connector;rounded=0;orthogonalLoop=1;jettySize=auto;html=1;exitX=0.5;exitY=1;exitDx=0;exitDy=0;strokeColor=default;align=center;verticalAlign=middle;fontFamily=Helvetica;fontSize=11;fontColor=default;labelBackgroundColor=default;autosize=1;resizable=0;endArrow=classic;" edge="1" parent="1" source="D7P21UFdMfmvg6rPIHkb-11">
          <mxGeometry relative="1" as="geometry">
            <mxPoint x="960.0588235294117" y="759.9999999999998" as="targetPoint" />
          </mxGeometry>
        </mxCell>
        <mxCell id="D7P21UFdMfmvg6rPIHkb-11" value="&lt;div&gt;IorD = 1&lt;/div&gt;&lt;div&gt;MemWrite&lt;/div&gt;&lt;div&gt;DatWidth = 010&lt;/div&gt;" style="ellipse;whiteSpace=wrap;html=1;aspect=fixed;" vertex="1" parent="1">
          <mxGeometry x="900" y="440" width="120" height="120" as="geometry" />
        </mxCell>
        <mxCell id="D7P21UFdMfmvg6rPIHkb-77" style="edgeStyle=none;shape=connector;rounded=0;orthogonalLoop=1;jettySize=auto;html=1;exitX=0.5;exitY=1;exitDx=0;exitDy=0;strokeColor=default;align=center;verticalAlign=middle;fontFamily=Helvetica;fontSize=11;fontColor=default;labelBackgroundColor=default;autosize=1;resizable=0;endArrow=classic;" edge="1" parent="1" source="D7P21UFdMfmvg6rPIHkb-12">
          <mxGeometry relative="1" as="geometry">
            <mxPoint x="1100.0588235294117" y="759.9999999999998" as="targetPoint" />
          </mxGeometry>
        </mxCell>
        <mxCell id="D7P21UFdMfmvg6rPIHkb-12" value="RegDst = 00&lt;div&gt;RegDatSel = 000&lt;/div&gt;&lt;div&gt;RegWrite&lt;/div&gt;" style="ellipse;whiteSpace=wrap;html=1;aspect=fixed;" vertex="1" parent="1">
          <mxGeometry x="1040" y="600" width="120" height="120" as="geometry" />
        </mxCell>
        <mxCell id="D7P21UFdMfmvg6rPIHkb-21" style="edgeStyle=none;shape=connector;rounded=0;orthogonalLoop=1;jettySize=auto;html=1;exitX=0.5;exitY=1;exitDx=0;exitDy=0;entryX=0.5;entryY=0;entryDx=0;entryDy=0;strokeColor=default;align=center;verticalAlign=middle;fontFamily=Helvetica;fontSize=11;fontColor=default;labelBackgroundColor=default;endArrow=classic;" edge="1" parent="1" source="D7P21UFdMfmvg6rPIHkb-14" target="D7P21UFdMfmvg6rPIHkb-20">
          <mxGeometry relative="1" as="geometry" />
        </mxCell>
        <mxCell id="D7P21UFdMfmvg6rPIHkb-14" value="&lt;div&gt;ALUsrcA = 000&lt;/div&gt;&lt;div&gt;ALUsrcB = 000&lt;/div&gt;&lt;div&gt;ALUOp&lt;/div&gt;" style="ellipse;whiteSpace=wrap;html=1;aspect=fixed;" vertex="1" parent="1">
          <mxGeometry x="1080" y="280" width="120" height="120" as="geometry" />
        </mxCell>
        <mxCell id="D7P21UFdMfmvg6rPIHkb-18" style="edgeStyle=none;shape=connector;rounded=0;orthogonalLoop=1;jettySize=auto;html=1;exitX=0.5;exitY=1;exitDx=0;exitDy=0;entryX=0.411;entryY=-0.017;entryDx=0;entryDy=0;entryPerimeter=0;strokeColor=default;align=center;verticalAlign=middle;fontFamily=Helvetica;fontSize=11;fontColor=default;labelBackgroundColor=default;endArrow=classic;" edge="1" parent="1" source="D7P21UFdMfmvg6rPIHkb-5" target="D7P21UFdMfmvg6rPIHkb-11">
          <mxGeometry relative="1" as="geometry" />
        </mxCell>
        <mxCell id="D7P21UFdMfmvg6rPIHkb-78" style="edgeStyle=none;shape=connector;rounded=0;orthogonalLoop=1;jettySize=auto;html=1;exitX=1;exitY=1;exitDx=0;exitDy=0;strokeColor=default;align=center;verticalAlign=middle;fontFamily=Helvetica;fontSize=11;fontColor=default;labelBackgroundColor=default;autosize=1;resizable=0;endArrow=classic;" edge="1" parent="1" source="D7P21UFdMfmvg6rPIHkb-20">
          <mxGeometry relative="1" as="geometry">
            <mxPoint x="1220" y="759.9999999999998" as="targetPoint" />
          </mxGeometry>
        </mxCell>
        <mxCell id="D7P21UFdMfmvg6rPIHkb-20" value="RegDst = 01&lt;div&gt;RegDatSel = 000&lt;/div&gt;&lt;div&gt;RegWrite&lt;/div&gt;" style="ellipse;whiteSpace=wrap;html=1;aspect=fixed;" vertex="1" parent="1">
          <mxGeometry x="1080" y="440" width="120" height="120" as="geometry" />
        </mxCell>
        <mxCell id="D7P21UFdMfmvg6rPIHkb-79" style="edgeStyle=none;shape=connector;rounded=0;orthogonalLoop=1;jettySize=auto;html=1;exitX=0.5;exitY=1;exitDx=0;exitDy=0;strokeColor=default;align=center;verticalAlign=middle;fontFamily=Helvetica;fontSize=11;fontColor=default;labelBackgroundColor=default;autosize=1;resizable=0;endArrow=classic;" edge="1" parent="1" source="D7P21UFdMfmvg6rPIHkb-23">
          <mxGeometry relative="1" as="geometry">
            <mxPoint x="1300" y="760" as="targetPoint" />
          </mxGeometry>
        </mxCell>
        <mxCell id="D7P21UFdMfmvg6rPIHkb-23" value="&lt;div&gt;ALUsrcA = 000&lt;/div&gt;&lt;div&gt;ALUsrcB = 000&lt;/div&gt;&lt;div&gt;ALUOp = 00110&lt;/div&gt;&lt;div&gt;Branch = 101&lt;/div&gt;&lt;div&gt;PCsrc = 01&lt;/div&gt;&lt;div&gt;PCwrite&lt;/div&gt;" style="ellipse;whiteSpace=wrap;html=1;aspect=fixed;" vertex="1" parent="1">
          <mxGeometry x="1241" y="280" width="120" height="120" as="geometry" />
        </mxCell>
        <mxCell id="D7P21UFdMfmvg6rPIHkb-80" style="edgeStyle=none;shape=connector;rounded=0;orthogonalLoop=1;jettySize=auto;html=1;exitX=0.5;exitY=1;exitDx=0;exitDy=0;strokeColor=default;align=center;verticalAlign=middle;fontFamily=Helvetica;fontSize=11;fontColor=default;labelBackgroundColor=default;autosize=1;resizable=0;endArrow=classic;" edge="1" parent="1" source="D7P21UFdMfmvg6rPIHkb-25">
          <mxGeometry relative="1" as="geometry">
            <mxPoint x="1460" y="760" as="targetPoint" />
          </mxGeometry>
        </mxCell>
        <mxCell id="D7P21UFdMfmvg6rPIHkb-25" value="&lt;div&gt;ALUsrcA = 000&lt;/div&gt;&lt;div&gt;ALUsrcB = 010&lt;/div&gt;&lt;div&gt;ALUOp = 10000&lt;/div&gt;&lt;div&gt;Branch = 010&lt;/div&gt;&lt;div&gt;PCsrc = 01&lt;/div&gt;&lt;div&gt;PCwrite&lt;/div&gt;" style="ellipse;whiteSpace=wrap;html=1;aspect=fixed;" vertex="1" parent="1">
          <mxGeometry x="1400" y="280" width="120" height="120" as="geometry" />
        </mxCell>
        <mxCell id="D7P21UFdMfmvg6rPIHkb-30" style="edgeStyle=none;shape=connector;rounded=0;orthogonalLoop=1;jettySize=auto;html=1;exitX=0.5;exitY=1;exitDx=0;exitDy=0;entryX=0.5;entryY=0;entryDx=0;entryDy=0;strokeColor=default;align=center;verticalAlign=middle;fontFamily=Helvetica;fontSize=11;fontColor=default;labelBackgroundColor=default;endArrow=classic;" edge="1" parent="1" source="D7P21UFdMfmvg6rPIHkb-28" target="D7P21UFdMfmvg6rPIHkb-29">
          <mxGeometry relative="1" as="geometry" />
        </mxCell>
        <mxCell id="D7P21UFdMfmvg6rPIHkb-28" value="RegDst = 11&lt;div&gt;RegDatSel = 100&lt;/div&gt;&lt;div&gt;RegWrite&lt;/div&gt;" style="ellipse;whiteSpace=wrap;html=1;aspect=fixed;" vertex="1" parent="1">
          <mxGeometry x="1560" y="280" width="120" height="120" as="geometry" />
        </mxCell>
        <mxCell id="D7P21UFdMfmvg6rPIHkb-81" style="edgeStyle=none;shape=connector;rounded=0;orthogonalLoop=1;jettySize=auto;html=1;exitX=0.5;exitY=1;exitDx=0;exitDy=0;strokeColor=default;align=center;verticalAlign=middle;fontFamily=Helvetica;fontSize=11;fontColor=default;labelBackgroundColor=default;autosize=1;resizable=0;endArrow=classic;" edge="1" parent="1" source="D7P21UFdMfmvg6rPIHkb-29">
          <mxGeometry relative="1" as="geometry">
            <mxPoint x="1620.0588235294117" y="759.9999999999998" as="targetPoint" />
          </mxGeometry>
        </mxCell>
        <mxCell id="D7P21UFdMfmvg6rPIHkb-29" value="&lt;div&gt;ALUsrcA = 000&lt;/div&gt;&lt;div&gt;ALUsrcB = 010&lt;/div&gt;&lt;div&gt;ALUOp = 00100&lt;/div&gt;&lt;div&gt;PCsrc = 00&lt;/div&gt;&lt;div&gt;PCwrite&lt;/div&gt;" style="ellipse;whiteSpace=wrap;html=1;aspect=fixed;" vertex="1" parent="1">
          <mxGeometry x="1560" y="440" width="120" height="120" as="geometry" />
        </mxCell>
        <mxCell id="D7P21UFdMfmvg6rPIHkb-32" style="edgeStyle=none;shape=connector;rounded=0;orthogonalLoop=1;jettySize=auto;html=1;entryX=0;entryY=0.5;entryDx=0;entryDy=0;strokeColor=default;align=center;verticalAlign=middle;fontFamily=Helvetica;fontSize=11;fontColor=default;labelBackgroundColor=default;endArrow=classic;" edge="1" parent="1" source="D7P21UFdMfmvg6rPIHkb-31" target="D7P21UFdMfmvg6rPIHkb-1">
          <mxGeometry relative="1" as="geometry" />
        </mxCell>
        <mxCell id="D7P21UFdMfmvg6rPIHkb-31" value="&lt;font style=&quot;font-size: 15px;&quot;&gt;Start&lt;/font&gt;" style="text;html=1;align=center;verticalAlign=middle;resizable=0;points=[];autosize=1;strokeColor=none;fillColor=none;fontFamily=Helvetica;fontSize=11;fontColor=default;labelBackgroundColor=default;" vertex="1" parent="1">
          <mxGeometry x="850" y="125" width="60" height="30" as="geometry" />
        </mxCell>
        <mxCell id="D7P21UFdMfmvg6rPIHkb-34" value="&lt;font style=&quot;font-size: 15px;&quot;&gt;0&lt;/font&gt;" style="text;html=1;align=center;verticalAlign=middle;resizable=0;points=[];autosize=1;strokeColor=none;fillColor=none;fontFamily=Helvetica;fontSize=11;fontColor=default;labelBackgroundColor=default;" vertex="1" parent="1">
          <mxGeometry x="950" y="80" width="30" height="30" as="geometry" />
        </mxCell>
        <mxCell id="D7P21UFdMfmvg6rPIHkb-35" value="&lt;font style=&quot;font-size: 15px;&quot;&gt;Memory address&lt;/font&gt;&lt;div&gt;&lt;font style=&quot;font-size: 15px;&quot;&gt;computation&lt;/font&gt;&lt;/div&gt;" style="text;html=1;align=center;verticalAlign=middle;resizable=0;points=[];autosize=1;strokeColor=none;fillColor=none;fontFamily=Helvetica;fontSize=11;fontColor=default;labelBackgroundColor=default;" vertex="1" parent="1">
          <mxGeometry x="840" y="240" width="140" height="50" as="geometry" />
        </mxCell>
        <mxCell id="D7P21UFdMfmvg6rPIHkb-36" value="&lt;font style=&quot;font-size: 15px;&quot;&gt;Instruction decode/&lt;/font&gt;&lt;div&gt;&lt;font style=&quot;font-size: 15px;&quot;&gt;register fetch/&lt;/font&gt;&lt;/div&gt;&lt;div&gt;&lt;span style=&quot;font-size: 15px;&quot;&gt;branch address&lt;/span&gt;&lt;/div&gt;" style="text;html=1;align=center;verticalAlign=middle;resizable=0;points=[];autosize=1;strokeColor=none;fillColor=none;fontFamily=Helvetica;fontSize=11;fontColor=default;labelBackgroundColor=default;" vertex="1" parent="1">
          <mxGeometry x="1270" y="50" width="150" height="70" as="geometry" />
        </mxCell>
        <mxCell id="D7P21UFdMfmvg6rPIHkb-38" value="&lt;span style=&quot;font-size: 15px;&quot;&gt;1&lt;/span&gt;" style="text;html=1;align=center;verticalAlign=middle;resizable=0;points=[];autosize=1;strokeColor=none;fillColor=none;fontFamily=Helvetica;fontSize=11;fontColor=default;labelBackgroundColor=default;" vertex="1" parent="1">
          <mxGeometry x="1180" y="80" width="30" height="30" as="geometry" />
        </mxCell>
        <mxCell id="D7P21UFdMfmvg6rPIHkb-39" value="&lt;font style=&quot;font-size: 15px;&quot;&gt;Op = &quot;LB&quot; or &quot;SH&quot; or &quot;ADDI&quot;&lt;/font&gt;" style="text;html=1;align=center;verticalAlign=middle;resizable=0;points=[];autosize=1;strokeColor=none;fillColor=none;fontFamily=Helvetica;fontSize=11;fontColor=default;labelBackgroundColor=default;rotation=-25;" vertex="1" parent="1">
          <mxGeometry x="965" y="210" width="210" height="30" as="geometry" />
        </mxCell>
        <mxCell id="D7P21UFdMfmvg6rPIHkb-40" value="&lt;span style=&quot;font-size: 15px;&quot;&gt;2&lt;/span&gt;" style="text;html=1;align=center;verticalAlign=middle;resizable=0;points=[];autosize=1;strokeColor=none;fillColor=none;fontFamily=Helvetica;fontSize=11;fontColor=default;labelBackgroundColor=default;" vertex="1" parent="1">
          <mxGeometry x="870" y="280" width="30" height="30" as="geometry" />
        </mxCell>
        <mxCell id="D7P21UFdMfmvg6rPIHkb-44" value="&lt;span style=&quot;font-size: 15px;&quot;&gt;3&lt;/span&gt;" style="text;html=1;align=center;verticalAlign=middle;resizable=0;points=[];autosize=1;strokeColor=none;fillColor=none;fontFamily=Helvetica;fontSize=11;fontColor=default;labelBackgroundColor=default;" vertex="1" parent="1">
          <mxGeometry x="760" y="440" width="30" height="30" as="geometry" />
        </mxCell>
        <mxCell id="D7P21UFdMfmvg6rPIHkb-45" value="&lt;span style=&quot;font-size: 15px;&quot;&gt;Instruction fetch&lt;/span&gt;" style="text;html=1;align=center;verticalAlign=middle;resizable=0;points=[];autosize=1;strokeColor=none;fillColor=none;fontFamily=Helvetica;fontSize=11;fontColor=default;labelBackgroundColor=default;" vertex="1" parent="1">
          <mxGeometry x="1020" y="60" width="130" height="30" as="geometry" />
        </mxCell>
        <mxCell id="D7P21UFdMfmvg6rPIHkb-46" value="&lt;span style=&quot;font-size: 15px;&quot;&gt;Op = &quot;LB&quot;&lt;/span&gt;" style="text;html=1;align=center;verticalAlign=middle;resizable=0;points=[];autosize=1;strokeColor=none;fillColor=none;fontFamily=Helvetica;fontSize=11;fontColor=default;labelBackgroundColor=default;" vertex="1" parent="1">
          <mxGeometry x="790" y="390" width="90" height="30" as="geometry" />
        </mxCell>
        <mxCell id="D7P21UFdMfmvg6rPIHkb-47" value="&lt;span style=&quot;font-size: 15px;&quot;&gt;Op = &quot;SH&quot;&lt;/span&gt;" style="text;html=1;align=center;verticalAlign=middle;resizable=0;points=[];autosize=1;strokeColor=none;fillColor=none;fontFamily=Helvetica;fontSize=11;fontColor=default;labelBackgroundColor=default;" vertex="1" parent="1">
          <mxGeometry x="880" y="400" width="90" height="30" as="geometry" />
        </mxCell>
        <mxCell id="D7P21UFdMfmvg6rPIHkb-48" value="&lt;span style=&quot;font-size: 15px;&quot;&gt;Op = &quot;ADDI&quot;&lt;/span&gt;" style="text;html=1;align=center;verticalAlign=middle;resizable=0;points=[];autosize=1;strokeColor=none;fillColor=none;fontFamily=Helvetica;fontSize=11;fontColor=default;labelBackgroundColor=default;" vertex="1" parent="1">
          <mxGeometry x="980" y="400" width="110" height="30" as="geometry" />
        </mxCell>
        <mxCell id="D7P21UFdMfmvg6rPIHkb-49" value="&lt;span style=&quot;font-size: 15px;&quot;&gt;4&lt;/span&gt;" style="text;html=1;align=center;verticalAlign=middle;resizable=0;points=[];autosize=1;strokeColor=none;fillColor=none;fontFamily=Helvetica;fontSize=11;fontColor=default;labelBackgroundColor=default;" vertex="1" parent="1">
          <mxGeometry x="760" y="600" width="30" height="30" as="geometry" />
        </mxCell>
        <mxCell id="D7P21UFdMfmvg6rPIHkb-50" value="&lt;font style=&quot;font-size: 15px;&quot;&gt;Memory access&lt;/font&gt;" style="text;html=1;align=center;verticalAlign=middle;resizable=0;points=[];autosize=1;strokeColor=none;fillColor=none;fontFamily=Helvetica;fontSize=11;fontColor=default;labelBackgroundColor=default;" vertex="1" parent="1">
          <mxGeometry x="773" y="440" width="130" height="30" as="geometry" />
        </mxCell>
        <mxCell id="D7P21UFdMfmvg6rPIHkb-51" value="&lt;font style=&quot;font-size: 15px;&quot;&gt;Memory access&lt;/font&gt;" style="text;html=1;align=center;verticalAlign=middle;resizable=0;points=[];autosize=1;strokeColor=none;fillColor=none;fontFamily=Helvetica;fontSize=11;fontColor=default;labelBackgroundColor=default;" vertex="1" parent="1">
          <mxGeometry x="900" y="440" width="130" height="30" as="geometry" />
        </mxCell>
        <mxCell id="D7P21UFdMfmvg6rPIHkb-52" value="&lt;font style=&quot;font-size: 15px;&quot;&gt;Memory write-back&lt;/font&gt;" style="text;html=1;align=center;verticalAlign=middle;resizable=0;points=[];autosize=1;strokeColor=none;fillColor=none;fontFamily=Helvetica;fontSize=11;fontColor=default;labelBackgroundColor=default;" vertex="1" parent="1">
          <mxGeometry x="780" y="600" width="150" height="30" as="geometry" />
        </mxCell>
        <mxCell id="D7P21UFdMfmvg6rPIHkb-54" value="&lt;span style=&quot;font-size: 15px;&quot;&gt;5&lt;/span&gt;" style="text;html=1;align=center;verticalAlign=middle;resizable=0;points=[];autosize=1;strokeColor=none;fillColor=none;fontFamily=Helvetica;fontSize=11;fontColor=default;labelBackgroundColor=default;" vertex="1" parent="1">
          <mxGeometry x="890" y="440" width="30" height="30" as="geometry" />
        </mxCell>
        <mxCell id="D7P21UFdMfmvg6rPIHkb-55" value="&lt;span style=&quot;font-size: 15px;&quot;&gt;6&lt;/span&gt;" style="text;html=1;align=center;verticalAlign=middle;resizable=0;points=[];autosize=1;strokeColor=none;fillColor=none;fontFamily=Helvetica;fontSize=11;fontColor=default;labelBackgroundColor=default;" vertex="1" parent="1">
          <mxGeometry x="1030" y="600" width="30" height="30" as="geometry" />
        </mxCell>
        <mxCell id="D7P21UFdMfmvg6rPIHkb-56" value="&lt;span style=&quot;color: rgb(0, 0, 0); font-family: Helvetica; font-size: 15px; font-style: normal; font-variant-ligatures: normal; font-variant-caps: normal; font-weight: 400; letter-spacing: normal; orphans: 2; text-align: center; text-indent: 0px; text-transform: none; widows: 2; word-spacing: 0px; -webkit-text-stroke-width: 0px; white-space: nowrap; background-color: rgb(255, 255, 255); text-decoration-thickness: initial; text-decoration-style: initial; text-decoration-color: initial; float: none; display: inline !important;&quot;&gt;ALU write-back&lt;/span&gt;" style="text;whiteSpace=wrap;html=1;fontFamily=Helvetica;fontSize=11;fontColor=default;labelBackgroundColor=default;autosize=1;resizable=0;" vertex="1" parent="1">
          <mxGeometry x="1100" y="440" width="130" height="30" as="geometry" />
        </mxCell>
        <mxCell id="D7P21UFdMfmvg6rPIHkb-57" value="&lt;font style=&quot;font-size: 15px;&quot;&gt;Op = &quot;AND&quot; or &quot;NOR&quot;&amp;nbsp;&lt;/font&gt;&lt;div&gt;&lt;font style=&quot;font-size: 15px;&quot;&gt;or &quot;SLTU&quot;&amp;nbsp;&lt;/font&gt;&lt;span style=&quot;font-size: 15px; background-color: light-dark(#ffffff, var(--ge-dark-color, #121212)); color: light-dark(rgb(0, 0, 0), rgb(255, 255, 255));&quot;&gt;or &quot;SRL&quot;&lt;/span&gt;&lt;/div&gt;" style="text;html=1;align=center;verticalAlign=middle;resizable=0;points=[];autosize=1;strokeColor=none;fillColor=none;fontFamily=Helvetica;fontSize=11;fontColor=default;labelBackgroundColor=default;rotation=0;" vertex="1" parent="1">
          <mxGeometry x="1090" y="220" width="170" height="50" as="geometry" />
        </mxCell>
        <mxCell id="D7P21UFdMfmvg6rPIHkb-59" value="&lt;div&gt;&lt;font style=&quot;font-size: 15px;&quot;&gt;Execution&lt;/font&gt;&lt;/div&gt;" style="text;html=1;align=center;verticalAlign=middle;resizable=0;points=[];autosize=1;strokeColor=none;fillColor=none;fontFamily=Helvetica;fontSize=11;fontColor=default;labelBackgroundColor=default;" vertex="1" parent="1">
          <mxGeometry x="1085" y="280" width="90" height="30" as="geometry" />
        </mxCell>
        <mxCell id="D7P21UFdMfmvg6rPIHkb-60" value="&lt;span style=&quot;font-size: 15px;&quot;&gt;7&lt;/span&gt;" style="text;html=1;align=center;verticalAlign=middle;resizable=0;points=[];autosize=1;strokeColor=none;fillColor=none;fontFamily=Helvetica;fontSize=11;fontColor=default;labelBackgroundColor=default;" vertex="1" parent="1">
          <mxGeometry x="1070" y="280" width="30" height="30" as="geometry" />
        </mxCell>
        <mxCell id="D7P21UFdMfmvg6rPIHkb-61" value="&lt;span style=&quot;font-size: 15px;&quot;&gt;8&lt;/span&gt;" style="text;html=1;align=center;verticalAlign=middle;resizable=0;points=[];autosize=1;strokeColor=none;fillColor=none;fontFamily=Helvetica;fontSize=11;fontColor=default;labelBackgroundColor=default;" vertex="1" parent="1">
          <mxGeometry x="1070" y="440" width="30" height="30" as="geometry" />
        </mxCell>
        <mxCell id="D7P21UFdMfmvg6rPIHkb-62" value="&lt;span style=&quot;font-size: 15px;&quot;&gt;Op = &quot;BNE&quot;&lt;/span&gt;" style="text;html=1;align=center;verticalAlign=middle;resizable=0;points=[];autosize=1;strokeColor=none;fillColor=none;fontFamily=Helvetica;fontSize=11;fontColor=default;labelBackgroundColor=default;rotation=0;" vertex="1" parent="1">
          <mxGeometry x="1241" y="230" width="100" height="30" as="geometry" />
        </mxCell>
        <mxCell id="D7P21UFdMfmvg6rPIHkb-63" value="&lt;span style=&quot;font-size: 15px;&quot;&gt;Op = &quot;BGEZ&quot;&lt;/span&gt;" style="text;html=1;align=center;verticalAlign=middle;resizable=0;points=[];autosize=1;strokeColor=none;fillColor=none;fontFamily=Helvetica;fontSize=11;fontColor=default;labelBackgroundColor=default;rotation=0;" vertex="1" parent="1">
          <mxGeometry x="1275" y="200" width="110" height="30" as="geometry" />
        </mxCell>
        <mxCell id="D7P21UFdMfmvg6rPIHkb-64" value="&lt;span style=&quot;font-size: 15px;&quot;&gt;Op = &quot;JALR&quot;&lt;/span&gt;" style="text;html=1;align=center;verticalAlign=middle;resizable=0;points=[];autosize=1;strokeColor=none;fillColor=none;fontFamily=Helvetica;fontSize=11;fontColor=default;labelBackgroundColor=default;rotation=0;" vertex="1" parent="1">
          <mxGeometry x="1410" y="210" width="110" height="30" as="geometry" />
        </mxCell>
        <mxCell id="D7P21UFdMfmvg6rPIHkb-65" value="&lt;span style=&quot;font-size: 15px;&quot;&gt;9&lt;/span&gt;" style="text;html=1;align=center;verticalAlign=middle;resizable=0;points=[];autosize=1;strokeColor=none;fillColor=none;fontFamily=Helvetica;fontSize=11;fontColor=default;labelBackgroundColor=default;" vertex="1" parent="1">
          <mxGeometry x="1235" y="280" width="30" height="30" as="geometry" />
        </mxCell>
        <mxCell id="D7P21UFdMfmvg6rPIHkb-66" value="&lt;span style=&quot;font-size: 15px;&quot;&gt;10&lt;/span&gt;" style="text;html=1;align=center;verticalAlign=middle;resizable=0;points=[];autosize=1;strokeColor=none;fillColor=none;fontFamily=Helvetica;fontSize=11;fontColor=default;labelBackgroundColor=default;" vertex="1" parent="1">
          <mxGeometry x="1387" y="280" width="40" height="30" as="geometry" />
        </mxCell>
        <mxCell id="D7P21UFdMfmvg6rPIHkb-67" value="&lt;span style=&quot;font-size: 15px;&quot;&gt;11&lt;/span&gt;" style="text;html=1;align=center;verticalAlign=middle;resizable=0;points=[];autosize=1;strokeColor=none;fillColor=none;fontFamily=Helvetica;fontSize=11;fontColor=default;labelBackgroundColor=default;" vertex="1" parent="1">
          <mxGeometry x="1550" y="280" width="40" height="30" as="geometry" />
        </mxCell>
        <mxCell id="D7P21UFdMfmvg6rPIHkb-68" value="&lt;span style=&quot;font-size: 15px;&quot;&gt;12&lt;/span&gt;" style="text;html=1;align=center;verticalAlign=middle;resizable=0;points=[];autosize=1;strokeColor=none;fillColor=none;fontFamily=Helvetica;fontSize=11;fontColor=default;labelBackgroundColor=default;" vertex="1" parent="1">
          <mxGeometry x="1550" y="440" width="40" height="30" as="geometry" />
        </mxCell>
        <mxCell id="D7P21UFdMfmvg6rPIHkb-69" value="&lt;div&gt;&lt;font style=&quot;font-size: 15px;&quot;&gt;BNE completion&lt;/font&gt;&lt;/div&gt;" style="text;html=1;align=center;verticalAlign=middle;resizable=0;points=[];autosize=1;strokeColor=none;fillColor=none;fontFamily=Helvetica;fontSize=11;fontColor=default;labelBackgroundColor=default;" vertex="1" parent="1">
          <mxGeometry x="1277" y="274" width="130" height="30" as="geometry" />
        </mxCell>
        <mxCell id="D7P21UFdMfmvg6rPIHkb-70" value="&lt;span style=&quot;font-size: 15px;&quot;&gt;BGEZ completion&lt;/span&gt;" style="text;html=1;align=center;verticalAlign=middle;resizable=0;points=[];autosize=1;strokeColor=none;fillColor=none;fontFamily=Helvetica;fontSize=11;fontColor=default;labelBackgroundColor=default;" vertex="1" parent="1">
          <mxGeometry x="1427" y="274" width="140" height="30" as="geometry" />
        </mxCell>
        <mxCell id="D7P21UFdMfmvg6rPIHkb-71" value="&lt;span style=&quot;font-size: 15px;&quot;&gt;JALR register write&lt;/span&gt;" style="text;html=1;align=center;verticalAlign=middle;resizable=0;points=[];autosize=1;strokeColor=none;fillColor=none;fontFamily=Helvetica;fontSize=11;fontColor=default;labelBackgroundColor=default;" vertex="1" parent="1">
          <mxGeometry x="1590" y="274" width="150" height="30" as="geometry" />
        </mxCell>
        <mxCell id="D7P21UFdMfmvg6rPIHkb-74" value="&lt;span style=&quot;font-size: 15px;&quot;&gt;JALR completion&lt;/span&gt;" style="text;html=1;align=center;verticalAlign=middle;resizable=0;points=[];autosize=1;strokeColor=none;fillColor=none;fontFamily=Helvetica;fontSize=11;fontColor=default;labelBackgroundColor=default;" vertex="1" parent="1">
          <mxGeometry x="1590" y="440" width="140" height="30" as="geometry" />
        </mxCell>
        <mxCell id="D7P21UFdMfmvg6rPIHkb-82" value="&lt;span style=&quot;font-size: 15px;&quot;&gt;ADDI write-back&lt;/span&gt;" style="text;html=1;align=center;verticalAlign=middle;resizable=0;points=[];autosize=1;strokeColor=none;fillColor=none;fontFamily=Helvetica;fontSize=11;fontColor=default;labelBackgroundColor=default;" vertex="1" parent="1">
          <mxGeometry x="1050" y="600" width="130" height="30" as="geometry" />
        </mxCell>
      </root>
    </mxGraphModel>
  </diagram>
</mxfile>
